<?xml version="1.0" encoding="UTF-8" standalone="no" ?>
<!DOCTYPE svg PUBLIC "-//W3C//DTD SVG 1.1//EN" "http://www.w3.org/Graphics/SVG/1.1/DTD/svg11.dtd">
<svg xmlns="http://www.w3.org/2000/svg" xmlns:xlink="http://www.w3.org/1999/xlink" version="1.1" width="1080" height="1080" viewBox="0 0 1080 1080" xml:space="preserve">
<desc>Created with Fabric.js 5.2.4</desc>
<defs>
</defs>
<g transform="matrix(1 0 0 1 540 540)" id="d71f86af-bf81-4199-9a64-deaf114de925"  >
<rect style="stroke: none; stroke-width: 1; stroke-dasharray: none; stroke-linecap: butt; stroke-dashoffset: 0; stroke-linejoin: miter; stroke-miterlimit: 4; fill: rgb(255,255,255); fill-rule: nonzero; opacity: 1; visibility: hidden;" vector-effect="non-scaling-stroke"  x="-540" y="-540" rx="0" ry="0" width="1080" height="1080" />
</g>
<g transform="matrix(1 0 0 1 540 540)" id="24a7ada3-15c7-46aa-b61b-0ff7f51ce5ff"  >
</g>
<g transform="matrix(38.07 0 0 44.66 540 540)" id="b03bcc43-4c79-45a5-aa9d-c07182acbd9c"  >
<path style="stroke: rgb(0,0,0); stroke-width: 0; stroke-dasharray: none; stroke-linecap: butt; stroke-dashoffset: 0; stroke-linejoin: miter; stroke-miterlimit: 4; fill: rgb(0,106,255); fill-rule: nonzero; opacity: 1;" vector-effect="non-scaling-stroke"  transform=" translate(-12, -12.5)" d="M 15.6679 7 C 15.6679 6.58579 16.0036 6.25 16.4179 6.25 L 22 6.25 C 22.4142 6.25 22.75 6.58579 22.75 7 L 22.75 12.5458 C 22.75 12.96 22.4142 13.2958 22 13.2958 C 21.5858 13.2958 21.25 12.96 21.25 12.5458 L 21.25 8.80286 L 15.1142 14.9013 C 14.6452 15.3674 14.241 15.7692 13.8739 16.0477 C 13.4804 16.3462 13.0432 16.572 12.505 16.572 C 11.9668 16.5719 11.5297 16.346 11.1362 16.0474 C 10.7692 15.7688 10.3651 15.367 9.89629 14.9007 L 9.62203 14.628 C 9.10787 14.1167 8.77452 13.7875 8.49695 13.5769 C 8.23672 13.3794 8.11506 13.3573 8.03449 13.3574 C 7.95393 13.3574 7.83228 13.3795 7.57219 13.5772 C 7.29478 13.7881 6.96167 14.1175 6.44789 14.6292 L 2.52922 18.5314 C 2.23571 18.8237 1.76084 18.8227 1.46856 18.5292 C 1.17628 18.2357 1.17728 17.7608 1.47078 17.4686 L 5.42433 13.5315 C 5.89326 13.0645 6.29742 12.662 6.66452 12.383 C 7.05802 12.0839 7.49535 11.8576 8.03395 11.8574 C 8.57254 11.8572 9.01003 12.0832 9.40375 12.382 C 9.77105 12.6607 10.1755 13.063 10.6448 13.5296 L 10.919 13.8024 C 11.4327 14.3132 11.7658 14.6421 12.0431 14.8526 C 12.3031 15.0499 12.4247 15.072 12.5052 15.072 C 12.5857 15.072 12.7073 15.0499 12.9673 14.8527 C 13.2447 14.6423 13.5778 14.3134 14.0916 13.8027 L 20.1815 7.75 L 16.4179 7.75 C 16.0036 7.75 15.6679 7.41421 15.6679 7 Z" stroke-linecap="round" />
</g>
<g transform="matrix(NaN NaN NaN NaN 0 0)"  >
<g style=""   >
</g>
</g>
<g transform="matrix(NaN NaN NaN NaN 0 0)"  >
<g style=""   >
</g>
</g>
</svg>